<svg version="1.1" id="Layer_1" xmlns="http://www.w3.org/2000/svg" xmlns:xlink="http://www.w3.org/1999/xlink" x="0px" y="0px"
	 width="100%" viewBox="0 0 635 636" enable-background="new 0 0 635 636" xml:space="preserve">
<path fill="#001C20" opacity="1.000000" stroke="none" 
	d="
M362.000000,637.000000 
	C241.333359,637.000000 121.166710,637.000000 1.000048,637.000000 
	C1.000032,425.000061 1.000032,213.000122 1.000016,1.000134 
	C212.666565,1.000089 424.333130,1.000089 635.999756,1.000045 
	C635.999878,212.999863 635.999878,424.999725 635.999939,636.999756 
	C544.833313,637.000000 453.666656,637.000000 362.000000,637.000000 
M254.088699,320.600922 
	C250.023529,325.117157 249.276749,330.717316 249.002640,336.435394 
	C248.506287,346.789886 253.746063,352.359558 264.130157,352.398895 
	C280.460815,352.460724 296.791962,352.387817 313.122742,352.432617 
	C319.880463,352.451172 321.431305,354.152954 320.858459,360.864502 
	C320.192688,368.664581 319.221741,376.442688 318.725189,384.252075 
	C318.148987,393.314209 327.921326,402.742676 336.608521,401.821350 
	C345.573792,400.870544 354.941833,391.724091 355.933899,382.766235 
	C356.722260,375.647675 357.344208,368.509888 357.972717,361.374664 
	C358.604919,354.197174 360.433624,352.441925 367.746216,352.426880 
	C382.743927,352.396088 397.742432,352.504303 412.739227,352.381714 
	C424.176117,352.288239 433.894073,343.235199 434.955719,332.057312 
	C437.208160,308.342560 439.490906,284.630676 441.762787,260.917786 
	C442.792938,250.165695 434.559052,241.070404 423.676239,241.055862 
	C400.179779,241.024490 376.683197,241.020660 353.186768,241.056610 
	C341.148682,241.075027 331.430603,249.808853 330.242706,261.740692 
	C328.757568,276.657806 327.386169,291.586395 326.010406,306.514160 
	C325.379822,313.356079 323.495972,315.183929 316.544128,315.194946 
	C299.713348,315.221680 282.882080,315.261536 266.051910,315.157349 
	C261.412994,315.128632 257.553406,316.435669 254.088699,320.600922 
M316.032806,282.697205 
	C316.744141,275.072235 317.574921,267.456085 318.136688,259.820099 
	C318.848145,250.149521 310.564484,241.091888 300.981384,241.067520 
	C276.833130,241.006088 252.684372,240.983688 228.536301,241.076004 
	C217.748413,241.117233 207.903702,250.099335 206.848907,260.780640 
	C204.215195,287.450989 201.684357,314.131500 199.121475,340.808868 
	C197.752472,355.058990 196.433044,369.313904 195.032028,383.560852 
	C194.259521,391.416504 199.536423,395.868896 204.757782,399.884308 
	C209.482346,403.517639 215.093201,402.446381 219.849670,399.541504 
	C226.892929,395.240021 232.134964,389.560425 232.773819,380.570251 
	C233.611450,368.782532 234.897446,357.026184 236.023148,345.259491 
	C237.925690,325.372650 239.895325,305.492126 241.739807,285.599976 
	C242.164215,281.022766 244.465012,278.424713 248.980148,278.328430 
	C256.970062,278.158020 264.968353,278.183807 272.959167,278.335480 
	C277.042145,278.412964 278.958557,280.870300 278.674469,284.902435 
	C278.417175,288.554291 277.925873,292.189941 277.680908,295.842346 
	C277.342957,300.880676 279.148865,302.907166 284.242523,302.979736 
	C291.735321,303.086578 299.231567,303.072906 306.724854,302.984497 
	C312.024445,302.921967 314.243439,300.839844 314.842499,295.543182 
	C315.291473,291.573334 315.600952,287.587708 316.032806,282.697205 
M306.349884,383.678833 
	C306.764954,379.706879 307.256226,375.741058 307.575256,371.761414 
	C307.951569,367.066833 306.053864,364.814636 301.389648,364.737488 
	C293.566650,364.608063 285.739899,364.718842 277.914856,364.696320 
	C273.539307,364.683746 270.987152,366.875549 270.443420,371.130219 
	C269.853088,375.749634 269.250946,380.399811 269.169830,385.045563 
	C268.977722,396.050201 282.214111,405.008026 292.176514,400.382690 
	C298.969299,397.228943 304.401367,392.329529 306.349884,383.678833 
z"/>
<path fill="#00D2F1" opacity="1.000000" stroke="none" 
	d="
M254.339691,320.338745 
	C257.553406,316.435669 261.412994,315.128632 266.051910,315.157349 
	C282.882080,315.261536 299.713348,315.221680 316.544128,315.194946 
	C323.495972,315.183929 325.379822,313.356079 326.010406,306.514160 
	C327.386169,291.586395 328.757568,276.657806 330.242706,261.740692 
	C331.430603,249.808853 341.148682,241.075027 353.186768,241.056610 
	C376.683197,241.020660 400.179779,241.024490 423.676239,241.055862 
	C434.559052,241.070404 442.792938,250.165695 441.762787,260.917786 
	C439.490906,284.630676 437.208160,308.342560 434.955719,332.057312 
	C433.894073,343.235199 424.176117,352.288239 412.739227,352.381714 
	C397.742432,352.504303 382.743927,352.396088 367.746216,352.426880 
	C360.433624,352.441925 358.604919,354.197174 357.972717,361.374664 
	C357.344208,368.509888 356.722260,375.647675 355.933899,382.766235 
	C354.941833,391.724091 345.573792,400.870544 336.608521,401.821350 
	C327.921326,402.742676 318.148987,393.314209 318.725189,384.252075 
	C319.221741,376.442688 320.192688,368.664581 320.858459,360.864502 
	C321.431305,354.152954 319.880463,352.451172 313.122742,352.432617 
	C296.791962,352.387817 280.460815,352.460724 264.130157,352.398895 
	C253.746063,352.359558 248.506287,346.789886 249.002640,336.435394 
	C249.276749,330.717316 250.023529,325.117157 254.339691,320.338745 
M401.436493,292.009155 
	C401.612244,290.354980 401.840820,288.704407 401.954651,287.045990 
	C402.453064,279.784637 401.020599,278.274506 393.581238,278.250092 
	C386.757629,278.227692 379.933899,278.244812 373.110199,278.253204 
	C368.336395,278.259094 365.642670,280.625977 365.174744,285.391205 
	C364.443054,292.842041 363.663849,300.290192 363.086700,307.753540 
	C362.663116,313.231384 364.394745,315.108246 369.829498,315.183380 
	C377.151093,315.284607 384.475983,315.278381 391.797821,315.187439 
	C397.340363,315.118652 399.481506,312.992279 400.017212,307.333710 
	C400.471924,302.531036 400.885315,297.724396 401.436493,292.009155 
z"/>
<path fill="#00D2F0" opacity="1.000000" stroke="none" 
	d="
M316.002655,283.153137 
	C315.600952,287.587708 315.291473,291.573334 314.842499,295.543182 
	C314.243439,300.839844 312.024445,302.921967 306.724854,302.984497 
	C299.231567,303.072906 291.735321,303.086578 284.242523,302.979736 
	C279.148865,302.907166 277.342957,300.880676 277.680908,295.842346 
	C277.925873,292.189941 278.417175,288.554291 278.674469,284.902435 
	C278.958557,280.870300 277.042145,278.412964 272.959167,278.335480 
	C264.968353,278.183807 256.970062,278.158020 248.980148,278.328430 
	C244.465012,278.424713 242.164215,281.022766 241.739807,285.599976 
	C239.895325,305.492126 237.925690,325.372650 236.023148,345.259491 
	C234.897446,357.026184 233.611450,368.782532 232.773819,380.570251 
	C232.134964,389.560425 226.892929,395.240021 219.849670,399.541504 
	C215.093201,402.446381 209.482346,403.517639 204.757782,399.884308 
	C199.536423,395.868896 194.259521,391.416504 195.032028,383.560852 
	C196.433044,369.313904 197.752472,355.058990 199.121475,340.808868 
	C201.684357,314.131500 204.215195,287.450989 206.848907,260.780640 
	C207.903702,250.099335 217.748413,241.117233 228.536301,241.076004 
	C252.684372,240.983688 276.833130,241.006088 300.981384,241.067520 
	C310.564484,241.091888 318.848145,250.149521 318.136688,259.820099 
	C317.574921,267.456085 316.744141,275.072235 316.002655,283.153137 
z"/>
<path fill="#00D1F0" opacity="1.000000" stroke="none" 
	d="
M306.273254,384.088867 
	C304.401367,392.329529 298.969299,397.228943 292.176514,400.382690 
	C282.214111,405.008026 268.977722,396.050201 269.169830,385.045563 
	C269.250946,380.399811 269.853088,375.749634 270.443420,371.130219 
	C270.987152,366.875549 273.539307,364.683746 277.914856,364.696320 
	C285.739899,364.718842 293.566650,364.608063 301.389648,364.737488 
	C306.053864,364.814636 307.951569,367.066833 307.575256,371.761414 
	C307.256226,375.741058 306.764954,379.706879 306.273254,384.088867 
z"/>
<path fill="#001E23" opacity="1.000000" stroke="none" 
	d="
M401.376740,292.464355 
	C400.885315,297.724396 400.471924,302.531036 400.017212,307.333710 
	C399.481506,312.992279 397.340363,315.118652 391.797821,315.187439 
	C384.475983,315.278381 377.151093,315.284607 369.829498,315.183380 
	C364.394745,315.108246 362.663116,313.231384 363.086700,307.753540 
	C363.663849,300.290192 364.443054,292.842041 365.174744,285.391205 
	C365.642670,280.625977 368.336395,278.259094 373.110199,278.253204 
	C379.933899,278.244812 386.757629,278.227692 393.581238,278.250092 
	C401.020599,278.274506 402.453064,279.784637 401.954651,287.045990 
	C401.840820,288.704407 401.612244,290.354980 401.376740,292.464355 
z"/>
</svg>