<svg version="1.1" id="Layer_1" xmlns="http://www.w3.org/2000/svg" xmlns:xlink="http://www.w3.org/1999/xlink" x="0px" y="0px"
	 width="100%" viewBox="0 0 1024 1024" enable-background="new 0 0 1024 1024" xml:space="preserve">
<path fill="#000000" opacity="1.000000" stroke="none" 
	d="
M564.538879,815.599976 
	C553.238159,819.992188 542.204651,819.274475 531.304932,816.013855 
	C517.267883,811.814697 503.133514,812.798828 488.767853,813.455750 
	C473.220764,814.166748 458.024017,816.879761 442.677765,818.786377 
	C430.993011,820.238037 419.498993,817.936401 408.902802,813.537598 
	C393.389343,807.097473 377.276306,804.657410 360.824646,803.051392 
	C351.051147,802.097229 341.329620,800.620605 331.575562,799.455261 
	C318.533966,797.897156 305.649170,799.424377 292.795013,801.534119 
	C286.633087,802.545471 281.639099,800.533203 276.823425,796.452271 
	C261.986877,783.879456 254.535767,767.597046 250.465469,748.958618 
	C248.021957,737.769470 243.859116,726.922180 241.876129,715.593201 
	C240.469971,707.559509 239.373093,699.558289 236.563736,691.787964 
	C231.306458,677.246948 221.493942,666.514404 209.256622,657.757629 
	C205.775635,655.266663 203.676239,652.552490 202.697723,648.314514 
	C197.251022,624.724182 200.385040,601.644714 206.328918,578.685425 
	C207.754974,573.177002 211.493301,568.927734 214.834396,564.679016 
	C225.131561,551.584473 231.366669,536.585510 235.919678,520.862000 
	C239.193298,509.556763 246.060226,499.916443 249.598892,488.768372 
	C254.271194,474.048920 263.333954,461.461090 270.435547,447.946075 
	C274.871643,439.503693 281.465546,432.152374 287.391541,424.545441 
	C296.673340,412.630798 305.919586,400.667419 315.707184,389.172821 
	C329.547516,372.918610 341.595001,355.384216 353.357086,337.656219 
	C359.692108,328.107971 365.170288,317.982727 370.868683,308.022644 
	C378.362091,294.925140 390.388763,289.587585 404.630127,288.120483 
	C411.082123,287.455841 417.592682,287.377502 424.061218,286.845276 
	C426.360352,286.656067 428.846893,286.367188 430.849548,285.344055 
	C442.349426,279.468750 455.037292,276.807159 466.836151,271.791168 
	C474.165466,268.675293 480.915131,264.290100 484.938141,257.385071 
	C494.455292,241.049973 511.381409,242.332916 524.003723,246.468460 
	C531.305542,248.860764 537.017761,253.664734 542.842285,258.422516 
	C552.982910,266.705872 565.529663,270.945129 576.431824,278.029999 
	C588.695435,285.999634 601.449585,293.210571 613.842285,300.987457 
	C619.769409,304.706970 626.382812,307.125977 632.013062,311.436157 
	C640.503479,317.935944 645.798645,327.182220 652.959473,334.800232 
	C671.884827,354.933899 684.749756,379.600586 702.174438,400.779266 
	C717.559998,419.479401 730.178833,440.107788 745.120544,459.097626 
	C754.623718,471.175446 760.049744,485.769836 766.782471,499.543854 
	C775.171814,516.707031 780.213196,535.037109 786.630676,552.877441 
	C791.853821,567.397461 793.701172,582.695740 793.877075,598.083130 
	C794.067200,614.717773 795.148499,631.511047 790.959045,647.826843 
	C785.312805,669.815918 785.034058,692.292114 784.061646,714.708069 
	C783.626099,724.745911 779.523193,733.599854 775.129944,742.030334 
	C769.027954,753.739746 762.588013,765.605103 749.572937,771.728210 
	C740.240295,776.118896 730.415833,778.780090 720.313904,779.729065 
	C705.447083,781.125793 691.134155,784.657349 676.883911,788.788574 
	C673.222107,789.850159 669.406311,790.409119 665.638306,791.067749 
	C661.682800,791.759094 657.713257,792.452576 654.197876,794.470459 
	C649.345398,797.255737 644.019165,798.484253 638.674072,799.822754 
	C619.116821,804.720032 599.353088,808.558960 579.478760,811.904419 
	C574.568054,812.731018 569.777832,814.272888 564.538879,815.599976 
M617.497009,572.850037 
	C602.187561,542.572327 586.848206,512.309692 571.579407,482.011414 
	C561.925842,462.855499 552.403992,443.633240 542.774048,424.465393 
	C535.094910,409.180603 528.087524,393.533173 518.628540,379.199677 
	C515.491333,374.445801 511.455231,371.365906 505.302307,372.390167 
	C500.552887,373.180786 497.533936,376.518646 495.476776,380.216125 
	C488.694336,392.406555 482.160370,404.746460 475.900513,417.214539 
	C450.532349,467.741852 425.338654,518.356750 400.003723,568.900757 
	C389.423523,590.008667 378.576935,610.982971 367.995697,632.090332 
	C362.197723,643.656189 365.328918,648.631653 378.109772,648.646790 
	C391.774506,648.662903 405.452362,648.282776 419.099823,648.768677 
	C430.160797,649.162476 437.100311,644.582581 441.777588,634.648376 
	C455.089722,606.374329 468.828552,578.300964 482.434235,550.165466 
	C488.950134,536.690979 495.481720,523.223267 502.158600,509.828369 
	C503.437042,507.263641 503.277374,503.798950 506.494659,502.224457 
	C508.650635,504.471222 509.733093,507.292999 511.038361,509.959564 
	C516.375671,520.863464 521.630554,531.807556 526.958984,542.715820 
	C542.430542,574.389038 557.862183,606.082153 573.454163,637.696106 
	C576.925842,644.735413 582.465454,648.928955 590.865845,648.701721 
	C599.524963,648.467468 608.195312,648.656616 616.860779,648.653870 
	C624.692993,648.651306 632.530334,648.816040 640.355957,648.584473 
	C648.823364,648.334045 652.891357,642.671875 649.418274,635.787903 
	C638.933350,615.005615 629.258057,593.809631 617.497009,572.850037 
z"/>
</svg>